<svg width="720" height="720" viewBox="0 0 720 720" fill="none" xmlns="http://www.w3.org/2000/svg">
    <path d="M97.1953 277H182.195V83L106.195 122L74.1953 64L176.195 11H270.195V277H345.195V346H97.1953V277ZM556.195 11H659.195L486.195 311H383.195L556.195 11ZM234.195 409H337.195L164.195 709H61.1953L234.195 409ZM512.195 715C468.195 715 434.195 702.667 410.195 678C386.195 653.333 374.195 621 374.195 581C374.195 558.333 377.862 536.667 385.195 516C392.529 495.333 402.195 476.333 414.195 459C426.195 441 439.862 425 455.195 411C470.529 396.333 486.529 384 503.195 374H627.195C579.195 405.333 540.529 434 511.195 460C481.862 486 464.195 514 458.195 544L464.195 546C466.862 540.667 470.195 535 474.195 529C478.862 522.333 484.529 516.333 491.195 511C498.529 505.667 506.862 501.333 516.195 498C525.529 494 536.862 492 550.195 492C578.862 492 602.862 501.333 622.195 520C642.195 538.667 652.195 564 652.195 596C652.195 630.667 639.529 659.333 614.195 682C589.529 704 555.529 715 512.195 715ZM515.195 653C532.529 653 544.529 648.667 551.195 640C558.529 631.333 562.195 620.333 562.195 607V597C562.195 583.667 558.529 572.667 551.195 564C544.529 555.333 532.529 551 515.195 551C497.862 551 485.529 555.333 478.195 564C471.529 572.667 468.195 583.667 468.195 597V607C468.195 620.333 471.529 631.333 478.195 640C485.529 648.667 497.862 653 515.195 653Z"
          fill="#E6EAFF"/>
</svg>
