<svg width="599" height="704" viewBox="0 0 599 704" fill="none" xmlns="http://www.w3.org/2000/svg">
    <path d="M36.1953 266H121.195V72L45.1953 111L13.1953 53L115.195 -1.38283e-05H209.195V266H284.195V335H36.1953V266ZM495.195 -1.38283e-05H598.195L425.195 300H322.195L495.195 -1.38283e-05ZM173.195 398H276.195L103.195 698H0.195313L173.195 398ZM451.195 704C407.195 704 373.195 691.667 349.195 667C325.195 642.333 313.195 610 313.195 570C313.195 547.333 316.862 525.667 324.195 505C331.529 484.333 341.195 465.333 353.195 448C365.195 430 378.862 414 394.195 400C409.529 385.333 425.529 373 442.195 363H566.195C518.195 394.333 479.529 423 450.195 449C420.862 475 403.195 503 397.195 533L403.195 535C405.862 529.667 409.195 524 413.195 518C417.862 511.333 423.529 505.333 430.195 500C437.529 494.667 445.862 490.333 455.195 487C464.529 483 475.862 481 489.195 481C517.862 481 541.862 490.333 561.195 509C581.195 527.667 591.195 553 591.195 585C591.195 619.667 578.529 648.333 553.195 671C528.529 693 494.529 704 451.195 704ZM454.195 642C471.529 642 483.529 637.667 490.195 629C497.529 620.333 501.195 609.333 501.195 596V586C501.195 572.667 497.529 561.667 490.195 553C483.529 544.333 471.529 540 454.195 540C436.862 540 424.529 544.333 417.195 553C410.529 561.667 407.195 572.667 407.195 586V596C407.195 609.333 410.529 620.333 417.195 629C424.529 637.667 436.862 642 454.195 642Z"
          fill="#E6EAFF"/>
</svg>
