<svg fill="none" height="361" viewBox="0 0 2067 361" width="2067" xmlns="http://www.w3.org/2000/svg">
    <path d="m.183595 5.99999h112.500405c47 0 81.833 15.00001 104.5 45.00001 22.666 30 34 73.167 34 129.5s-11.334 99.5-34 129.5c-22.667 30-57.5 45-104.5 45h-112.500405zm107.500405 290.00001c22.333 0 38.666-7.167 49-21.5 10.333-14.333 15.5-35.167 15.5-62.5v-63.5c0-27-5.167-47.667-15.5-62-10.334-14.3333-26.667-21.5-49-21.5h-33.5004v231zm310.304 65c-46.666 0-81.166-15.833-103.5-47.5-22-31.667-33-76-33-133s11-101.3333 33-133c22.334-31.6667 56.834-47.50001907 103.5-47.50001907 46.667 0 81 15.83331907 103 47.50001907 22.334 31.6667 33.5 76 33.5 133s-11.166 101.333-33.5 133c-22 31.667-56.333 47.5-103 47.5zm0-60.5c21.334 0 36-7.833 44-23.5 8.334-16 12.5-38.167 12.5-66.5v-60.5c0-28-4.166-49.833-12.5-65.5-8-16-22.666-24-44-24-21.333 0-36.166 8-44.5 24-8 15.667-12 37.5-12 65.5v61c0 28 4 50 12 66 8.334 15.667 23.167 23.5 44.5 23.5zm252.305-294.50001v221.00001c0 11 .333 21.167 1 30.5 1 9 3 16.667 6 23 3.333 6.333 8.167 11.333 14.5 15 6.333 3.333 15 5 26 5s19.667-1.667 26-5c6.333-3.667 11-8.667 14-15 3.333-6.333 5.333-14 6-23 1-9.333 1.5-19.5 1.5-30.5v-221.00001h75v211.00001c0 24-1.667 45-5 63-3 18-9 33-18 45s-21.5 21-37.5 27-36.667 9-62 9-46-3-62-9-28.5-15-37.5-27-15.167-27-18.5-45c-3-18-4.5-39-4.5-63v-211.00001zm235.805 0h122.502c34.33 0 60.5 8.33331 78.5 25.00001 18.33 16.6666 27.5 39.3333 27.5 68 0 20-5 36-15 48-9.67 11.667-23.67 20.167-42 25.5v3c21.66 5.333 38.33 14.667 50 28 12 13.333 18 31.833 18 55.5 0 29.333-9.34 52.667-28 70-18.34 17.333-44.17 26-77.5 26h-134.002zm111.002 296.50001c18 0 31.16-3 39.5-9 8.33-6 12.5-17 12.5-33v-14.5c0-16-4.17-27-12.5-33-8.34-6-21.5-9-39.5-9h-38.002v98.5zm-9.5-148.5c17.66 0 30.5-2.833 38.5-8.5 8-6 12-16.667 12-32v-15c0-15.3333-4-25.8333-12-31.5s-20.84-8.5-38.5-8.5h-28.502v95.5zm205.8 201v-349.00001h75.5v287.50001h150v61.5zm293.81 0v-349.00001h223v61.50001h-148v80h143v61.5h-143v84.5h148v61.5zm278.3-216h42.5v-97l-38 19.5-16-29 51-26.50001h47v133.00001h37.5v34.5h-124zm229.5-133.00001h51.5l-86.5 150.00001h-51.5zm-161 199.00001h51.5l-86.5 150h-51.5zm139 153c-22 0-39-6.167-51-18.5s-18-28.5-18-48.5c0-11.333 1.84-22.167 5.5-32.5 3.67-10.333 8.5-19.833 14.5-28.5 6-9 12.84-17 20.5-24 7.67-7.333 15.67-13.5 24-18.5h62c-24 15.667-43.33 30-58 43-14.66 13-23.5 27-26.5 42l3 1c1.34-2.667 3-5.5 5-8.5 2.34-3.333 5.17-6.333 8.5-9 3.67-2.667 7.84-4.833 12.5-6.5 4.67-2 10.34-3 17-3 14.34 0 26.34 4.667 36 14 10 9.333 15 22 15 38 0 17.333-6.33 31.667-19 43-12.33 11-29.33 16.5-51 16.5zm1.5-31c8.67 0 14.67-2.167 18-6.5 3.67-4.333 5.5-9.833 5.5-16.5v-5c0-6.667-1.83-12.167-5.5-16.5-3.33-4.333-9.33-6.5-18-6.5-8.66 0-14.83 2.167-18.5 6.5-3.33 4.333-5 9.833-5 16.5v5c0 6.667 1.67 12.167 5 16.5 3.67 4.333 9.84 6.5 18.5 6.5z"
          fill="#fff"/>
</svg>